<?xml version="1.0" ?>
<svg width="440" height="404" viewBox="0 0 440 404" fill="none" xmlns="http://www.w3.org/2000/svg">
<path d="M198.5 210.5C124.1 258.1 59.8333 360.333 37 405.5L97.5 404.5C106 382.667 128.1 330.2 148.5 295C168.9 259.8 195 228.667 205.5 217.5L219.5 218.5C222.833 223.833 230.4 237.5 234 249.5C237.6 261.5 225.833 296.833 219.5 313C233.9 307.8 244.833 290.167 248.5 282C262.9 253.6 247.5 230.833 238 223C251.2 223.4 270.833 230.833 279 234.5C313 248.1 334.5 282.5 341 298L374 370C380.4 352 381 324.5 380.5 313C379.3 285.4 364.333 256.167 357 245C338.2 215.4 299.5 201 282.5 197.5C253.3 193.1 223.667 204.333 212.5 210.5C244.9 191.7 279 185 292 184C322 180 361.167 199 377 209L438.5 251.5L426 220C412.8 190.8 387.833 169.5 377 162.5C370.167 156.833 348.1 145 314.5 143C280.9 141 253.5 158.5 244 167.5C257.2 135.5 252.833 104.833 249 93.5C240.2 61.9 216 38.3333 205 30.5C161.8 2.9 131.667 -0.333335 122 1.5L161 39C187 63.4 202.167 90.5 206.5 101C222.1 133 213 179.667 206.5 199C207.7 186.6 205 167.833 203.5 160C199.5 139 177.6 93.8 122 81C66.4 68.2 18.5 94.3333 1.5 109C31 109.5 98 114.3 130 129.5C162 144.7 181.333 174.5 187 187.5C166.2 179.1 148 185.333 141.5 189.5C122.7 198.7 113.667 217 111.5 225L147 207.5C169.4 197.1 190.667 205.167 198.5 210.5Z" fill="#221A40" stroke="#221A40"/>
</svg>



