<?xml version="1.0" ?>
<svg width="441" height="403" viewBox="0 0 441 403" fill="none" xmlns="http://www.w3.org/2000/svg">
<path d="M242 210.419C316.4 258.019 380.667 360.253 403.5 405.419L343 404.419C334.5 382.586 312.4 330.119 292 294.919C271.6 259.719 245.5 228.586 235 217.419L221 218.419C217.667 223.753 210.1 237.419 206.5 249.419C202.9 261.419 214.667 296.753 221 312.919C206.6 307.719 195.667 290.086 192 281.919C177.6 253.519 193 230.753 202.5 222.919C189.3 223.319 169.667 230.753 161.5 234.419C127.5 248.019 106 282.419 99.5 297.919L66.5 369.919C60.1 351.919 59.5 324.419 60 312.919C61.2 285.319 76.1667 256.086 83.5 244.919C102.3 215.319 141 200.919 158 197.419C187.2 193.019 216.833 204.253 228 210.419C195.6 191.619 161.5 184.919 148.5 183.919C118.5 179.919 79.3333 198.919 63.5 208.919L2 251.419L14.5 219.919C27.7 190.719 52.6667 169.419 63.5 162.419C70.3333 156.753 92.4 144.919 126 142.919C159.6 140.919 187 158.419 196.5 167.419C183.3 135.419 187.667 104.753 191.5 93.4193C200.3 61.8193 224.5 38.2526 235.5 30.4192C278.7 2.81925 308.833 -0.414085 318.5 1.41925L279.5 38.9192C253.5 63.3192 238.333 90.4193 234 100.919C218.4 132.919 227.5 179.586 234 198.919C232.8 186.519 235.5 167.753 237 159.919C241 138.919 262.9 93.7193 318.5 80.9193C374.1 68.1192 422 94.2526 439 108.919C409.5 109.419 342.5 114.219 310.5 129.419C278.5 144.619 259.167 174.419 253.5 187.419C274.3 179.019 292.5 185.253 299 189.419C317.8 198.619 326.833 216.919 329 224.919L293.5 207.419C271.1 197.019 249.833 205.086 242 210.419Z" fill="#221A40" stroke="#221A40"/>
</svg>
