<?xml version="1.0" ?>
<svg width="125" height="109" viewBox="0 0 125 109" fill="none" xmlns="http://www.w3.org/2000/svg">
<path fill-rule="evenodd" clip-rule="evenodd" d="M125 24.0244V95C124.959 99.1463 122.512 107.732 113.049 108.902H24.2683C20.6504 108.74 13.1463 106.195 12.0732 97.3171C8.13008 96.7073 0.195122 93.1951 0 84.0244V12.439C0.243897 8.94309 2.92682 1.56098 11.7073 0H102.439C105.569 0.793614 112.049 4.25251 112.927 11.7392C117.276 12.4244 123.966 15.4947 125 24.0244ZM24.1463 11.5854H109.146C108.659 8.86179 105.829 3.43902 98.4146 3.53659H16.8293C12.8455 2.84553 4.60976 3.95122 3.53659 13.9024V83.2927C3.45528 86.0163 4.9756 91.9024 11.7073 93.6585V25.3659C11.7006 24.6954 11.7611 23.9058 11.912 23.0488H9.39024C8.82114 23.0081 7.68293 22.6341 7.68293 21.4634C7.68293 20.2927 8.82114 19.5935 9.39024 19.3902H13.0492C14.6624 15.8661 17.9614 12.366 24.1463 11.5854ZM110.61 105.488C114.187 105.569 121.341 103.268 121.341 93.4146V25.7317C121.26 22.2358 118.976 15.2439 110.488 15.2439H25.8537C22.5203 15.2439 15.7317 17.2683 15.2439 25.3659V95.3659C15.3252 98.6179 17.439 105.146 25.2439 105.244L110.61 105.488ZM21.2195 31.0976C20.6098 31.1789 19.4146 31.6829 19.5122 33.0488C19.6098 34.4146 20.6911 34.7561 21.2195 34.7561H115.488C116.016 34.6748 117.073 34.1951 117.073 32.9268C117.073 31.6585 116.016 31.1789 115.488 31.0976H21.2195ZM25.2439 21.2195C23.7805 21.2195 23.3333 22.439 23.2927 23.0488C23.2927 23.6992 23.6829 25 25.2439 25C26.8049 25 27.1138 23.6992 27.0732 23.0488C27.0732 22.439 26.7073 21.2195 25.2439 21.2195ZM31.0976 23.0488C31.1382 22.439 31.5854 21.2195 33.0488 21.2195C34.5122 21.2195 34.878 22.439 34.878 23.0488C34.9187 23.6992 34.6098 25 33.0488 25C31.4878 25 31.0976 23.6992 31.0976 23.0488ZM40.9756 21.2195C39.5122 21.2195 39.065 22.439 39.0244 23.0488C39.0244 23.6992 39.4146 25 40.9756 25C42.5366 25 42.8455 23.6992 42.8049 23.0488C42.8049 22.439 42.439 21.2195 40.9756 21.2195ZM42.1695 58.5858C41.3884 57.8047 40.1221 57.8047 39.341 58.5858C38.56 59.3668 38.56 60.6332 39.341 61.4142L49.1228 71.196L38.7077 81.611C37.9267 82.3921 37.9267 83.6584 38.7077 84.4394C39.4888 85.2205 40.7551 85.2205 41.5362 84.4394L51.9512 74.0244L62.3663 84.4394C63.1473 85.2205 64.4137 85.2205 65.1947 84.4394C65.9757 83.6584 65.9757 82.3921 65.1947 81.611L54.7796 71.196L64.5614 61.4142C65.3424 60.6332 65.3424 59.3668 64.5614 58.5858C63.7803 57.8047 62.514 57.8047 61.733 58.5858L51.9512 68.3675L42.1695 58.5858ZM98.439 70.8537C98.439 76.4573 93.8964 81 88.2927 81C82.689 81 78.1463 76.4573 78.1463 70.8537C78.1463 65.25 82.689 60.7073 88.2927 60.7073C93.8964 60.7073 98.439 65.25 98.439 70.8537ZM102.439 70.8537C102.439 78.6665 96.1055 85 88.2927 85C80.4799 85 74.1463 78.6665 74.1463 70.8537C74.1463 63.0409 80.4799 56.7073 88.2927 56.7073C96.1055 56.7073 102.439 63.0409 102.439 70.8537Z" fill="#221A40"/>
</svg>


